<?xml version="1.0"?>
<svg fill="#FDFBF7" xmlns="http://www.w3.org/2000/svg" width="80" height="80" viewBox="0 0 128 128"><g><path d="M62.261,36.089a24.04,24.04,0,0,0,2.827-6.831v0A23.937,23.937,0,0,0,60.583,9,23.529,23.529,0,0,0,41.968,0H23.794A23.749,23.749,0,0,0,3.5,36.089L11.75,49.655a5.758,5.758,0,0,0-3.994,5.473V72.872a5.759,5.759,0,0,0,3.984,5.47l-4.927,8.1L3.489,91.911A23.654,23.654,0,0,0,5.166,119a23.527,23.527,0,0,0,18.616,9H41.956A23.748,23.748,0,0,0,62.248,91.911L54,78.347a5.757,5.757,0,0,0,4-5.475V55.128a5.759,5.759,0,0,0-3.988-5.472l4.924-8.1Zm-5.827,2.846c-.061,0-.122,0-.184,0A29.46,29.46,0,0,1,27.4,3.5h5.816a33.043,33.043,0,0,0,27.9,26.856,20.59,20.59,0,0,1-1.837,3.915ZM41.968,3.5a20.053,20.053,0,0,1,15.865,7.665,20.48,20.48,0,0,1,4.15,15.784A29.538,29.538,0,0,1,36.77,3.5Zm-18.174,0h.04A32.927,32.927,0,0,0,54.341,42.378l-4.256,7H23.992a33.067,33.067,0,0,0-9.007-29.794,32.749,32.749,0,0,0-8.6-6.185A20.1,20.1,0,0,1,23.794,3.5ZM4.865,16.558a29.273,29.273,0,0,1,7.646,5.5A29.551,29.551,0,0,1,20.4,49.378H15.678L6.492,34.271A19.852,19.852,0,0,1,4.865,16.558ZM54.5,66.75H11.256v-5.5H54.5ZM6.479,93.729l2.835-4.661c.062,0,.123,0,.185,0A29.411,29.411,0,0,1,38.344,124.5h-5.8A33.048,33.048,0,0,0,4.634,97.635,20.579,20.579,0,0,1,6.479,93.729Zm1.437,23.106a20.479,20.479,0,0,1-4.143-15.78,29.53,29.53,0,0,1,25.2,23.445h-5.19A20.053,20.053,0,0,1,7.916,116.835Zm34.04,7.665h-.035A32.958,32.958,0,0,0,11.412,85.617l4.253-7h26.1a33.066,33.066,0,0,0,9.005,29.794,32.716,32.716,0,0,0,8.593,6.175A20.1,20.1,0,0,1,41.956,124.5ZM60.89,111.451a29.261,29.261,0,0,1-7.651-5.51,29.561,29.561,0,0,1-7.9-27.319h4.737l9.186,15.107A19.851,19.851,0,0,1,60.89,111.451ZM52.25,75.122H13.506a2.253,2.253,0,0,1-2.25-2.25V70.25H54.5v2.622A2.253,2.253,0,0,1,52.25,75.122ZM54.5,57.75H11.256V55.128a2.253,2.253,0,0,1,2.25-2.25H52.25a2.253,2.253,0,0,1,2.25,2.25Z"/><path d="M100.538,11.063V9.75A9.761,9.761,0,0,0,90.788,0H79.226a9.761,9.761,0,0,0-9.75,9.75v1.313a9.757,9.757,0,0,0,8.236,9.62v84.479a44.709,44.709,0,0,0,5.59,21.621l.175.317a1.751,1.751,0,0,0,1.53.9h0a1.754,1.754,0,0,0,1.53-.9l.173-.315a44.711,44.711,0,0,0,5.59-21.62V20.683A9.757,9.757,0,0,0,100.538,11.063Zm-27.562,0V9.75a6.257,6.257,0,0,1,6.25-6.25H90.788a6.257,6.257,0,0,1,6.25,6.25v1.313a6.257,6.257,0,0,1-6.25,6.25H79.226A6.257,6.257,0,0,1,72.976,11.063Zm15.826,94.1a41.224,41.224,0,0,1-3.8,17.25,41.224,41.224,0,0,1-3.8-17.25V20.813H88.8Z"/><path d="M119.754,107.317V22.838A44.717,44.717,0,0,0,114.166,1.22L113.991.9a1.752,1.752,0,0,0-1.53-.9h0a1.748,1.748,0,0,0-1.529.9l-.178.319a44.727,44.727,0,0,0-5.588,21.619v84.479a9.757,9.757,0,0,0-8.236,9.621v1.312a9.761,9.761,0,0,0,9.75,9.75H118.24a9.761,9.761,0,0,0,9.75-9.75v-1.312A9.757,9.757,0,0,0,119.754,107.317Zm-11.09-84.479a41.236,41.236,0,0,1,3.8-17.25,41.236,41.236,0,0,1,3.8,17.25v84.35h-7.59ZM124.49,118.25a6.257,6.257,0,0,1-6.25,6.25H106.678a6.257,6.257,0,0,1-6.25-6.25v-1.312a6.256,6.256,0,0,1,6.25-6.25H118.24a6.257,6.257,0,0,1,6.25,6.25Z"/></g></svg>
